<svg width="172" height="493" viewBox="0 0 172 493" fill="none" xmlns="http://www.w3.org/2000/svg">
<path d="M16.1337 116.094L16.44 116.553C58.4579 174.909 109.717 202.172 145.302 214.782C176.445 225.81 202.381 228.21 212.694 228.21C215.042 228.21 216.574 228.107 217.186 227.903C219.535 227.239 220.607 225.912 221.067 224.942C222.088 222.798 221.271 220.653 221.169 220.398L220.964 219.99C181.346 161.941 129.271 134.269 92.5623 121.352C52.7908 107.312 21.9029 107.006 21.5965 107.006H21.137L20.6775 107.21C16.3379 109.15 15.7253 113.541 15.9805 115.583V116.145L16.1337 116.094Z" fill="#C4D7E3" fill-opacity="0.1"/>
<path d="M223.875 250.98L224.181 250.52V249.959C224.538 247.916 223.875 243.526 219.484 241.637L219.024 241.432H218.565C218.259 241.432 187.371 241.994 147.701 256.391C111.095 269.666 59.2748 297.746 20.167 356.152L19.9628 356.56C19.9628 356.56 19.0438 358.96 20.116 361.104C20.6265 362.074 21.6986 363.402 23.9961 364.065C24.5577 364.219 25.8851 364.321 27.9273 364.321C37.8829 364.321 64.176 361.819 95.7788 350.332C131.262 337.415 182.265 309.692 223.772 250.98" fill="#C4D7E3" fill-opacity="0.1"/>
<path d="M45.3371 74.8926C59.5302 84.5419 76.4293 89.392 93.941 89.392C110.176 89.392 126.922 85.2056 142.596 76.8837C174.352 59.9846 194.008 29.6583 193.906 -2.25082C193.906 -3.78246 192.885 -5.16093 191.404 -5.67147C189.923 -6.13097 188.29 -5.67147 187.371 -4.39511C176.956 9.69594 168.327 19.6005 159.342 27.7692C130.649 54.4708 92.9709 68.1023 47.3282 68.2555C45.7455 68.2555 44.367 69.2766 43.9075 70.8082C43.448 72.3398 44.0096 73.9736 45.3371 74.8415" fill="#C4D7E3" fill-opacity="0.1"/>
<path d="M54.4756 232.906C55.752 196.504 39.0061 163.881 10.9261 147.747C9.59869 146.982 7.86284 147.135 6.73964 148.207C5.56538 149.228 5.208 150.913 5.87171 152.342C13.0193 168.425 17.41 180.831 20.1159 192.726C29.2547 230.966 22.6686 270.38 0.459929 309.948C-0.305888 311.326 -0.10167 313.062 0.970475 314.185C1.68524 314.9 2.60422 315.308 3.57426 315.308C4.0848 315.308 4.6464 315.206 5.15695 314.951C34.3601 300.809 53.2503 269.359 54.5267 232.906" fill="#C4D7E3" fill-opacity="0.1"/>
<path d="M148.365 390.155C116.966 370.754 79.7475 369.12 51.208 385.917C49.8295 386.734 49.1658 388.317 49.5232 389.848C49.8806 391.38 51.208 392.503 52.7907 392.605C98.2803 395.719 134.988 411.751 161.894 440.29C170.318 449.02 178.283 459.487 187.677 474.19C188.34 475.262 189.515 475.824 190.74 475.824C191.046 475.824 191.353 475.824 191.608 475.722C193.14 475.365 194.212 474.037 194.314 472.506C196.509 440.647 178.946 409.096 148.365 390.155Z" fill="#C4D7E3" fill-opacity="0.1"/>
</svg>
