<svg width="14" height="17" viewBox="0 0 14 17" fill="none" xmlns="http://www.w3.org/2000/svg">
<path d="M7 16.8158C6.71785 16.8158 6.44914 16.6949 6.27447 16.4799C5.32054 15.2304 4.52783 14.2227 3.82917 13.3225C0.658349 9.25149 0 8.40504 0 6.3225C0.201536 2.65456 3.33205 -0.166939 7 0.00772519C10.6679 -0.166939 13.7985 2.64112 14 6.30907C14 8.3916 13.3417 9.23805 10.1574 13.3225C9.49904 14.169 8.6929 15.2035 7.71209 16.4665C7.53743 16.6814 7.26871 16.8158 7 16.8024V16.8158ZM7 2.53364C5.03839 2.43959 3.37236 3.94439 3.26488 5.89256C3.37236 7.84074 5.03839 9.34554 7 9.25149C8.94818 9.34554 10.6142 7.84074 10.7351 5.89256C10.6276 3.94439 8.96161 2.43959 7 2.53364Z" fill="#C4D7E3"/>
</svg>
