<svg width="18" height="20" viewBox="0 0 18 20" fill="none" xmlns="http://www.w3.org/2000/svg">
<g clip-path="url(#clip0_863_19692)">
<path d="M7.20748 7.9995V7.23745C6.92362 7.20005 6.63766 7.1807 6.35133 7.1795C2.84953 7.1795 0 9.83591 0 13.101C0 15.1036 1.07391 16.8769 2.71156 17.9487C1.61499 16.8554 1.00493 15.4144 1.00596 13.9174C1.00596 10.699 3.77415 8.07437 7.20748 7.9995Z" fill="#00F2EA"/>
<path d="M7.37583 16.4102C8.85645 16.4102 10.0637 15.2446 10.1188 13.7913L10.1239 0.821024H12.5179C12.4666 0.550319 12.4406 0.275476 12.4401 0L9.17101 0L9.16534 12.9707C9.11077 14.423 7.90249 15.5887 6.42238 15.5887C5.97833 15.5887 5.54091 15.4814 5.14769 15.2759C5.4025 15.6271 5.73734 15.913 6.12469 16.1102C6.51203 16.3074 6.94083 16.4102 7.37583 16.4102ZM16.9885 5.22358V4.50256C16.1097 4.50353 15.2495 4.25038 14.5123 3.77384C15.1593 4.51049 16.0276 5.01903 16.9885 5.22358Z" fill="#00F2EA"/>
<path d="M14.415 3.95794C13.6961 3.14897 13.2991 2.10601 13.2988 1.02563H12.4252C12.5395 1.6234 12.7749 2.19169 13.117 2.69584C13.4591 3.19999 13.9007 3.62942 14.415 3.95794ZM6.34516 10.2897C4.83159 10.2918 3.60529 11.5005 3.60374 12.9923C3.60532 13.4868 3.74317 13.9714 4.00226 14.3933C4.26135 14.8151 4.63174 15.158 5.07304 15.3846C4.7363 14.9276 4.55453 14.3756 4.5541 13.8087C4.55565 12.3164 5.78195 11.1072 7.29552 11.1056C7.57867 11.1056 7.84895 11.1518 8.10482 11.2307V7.9487C7.83667 7.91114 7.5663 7.89161 7.29552 7.89024C7.24815 7.89024 7.20131 7.89331 7.15446 7.89383V10.4148C6.89257 10.3327 6.61972 10.2905 6.34516 10.2897Z" fill="#FF004F"/>
<path d="M16.553 5.64105V8.14566C14.9267 8.14807 13.3404 7.64406 12.0159 6.70413V13.2513C12.0159 16.5215 9.32339 19.1821 6.01412 19.1821C4.7348 19.1821 3.54865 18.7831 2.5741 18.1067C3.1367 18.705 3.81671 19.1817 4.57194 19.5074C5.32717 19.8331 6.14152 20.0008 6.96448 20C10.2743 20 12.9668 17.3395 12.9668 14.0698V7.52207C14.2913 8.46183 15.8777 8.96566 17.5039 8.9631V5.74105C17.1843 5.74096 16.8656 5.70744 16.553 5.64105Z" fill="#FF004F"/>
<path d="M12.3449 13.0359V6.47793C13.7079 7.42176 15.329 7.92585 16.9891 7.92203V5.41434C16.0129 5.2131 15.1269 4.70641 14.4603 3.96819C13.3936 3.29794 12.6574 2.23486 12.4236 1.02563H9.97978L9.97464 13.9564C9.91801 15.4046 8.68501 16.5666 7.17402 16.5666C6.27102 16.5656 5.42466 16.1451 4.89851 15.4364C3.97493 14.9682 3.39575 14.0436 3.39524 13.0354C3.39678 11.5379 4.6514 10.3251 6.20101 10.3231C6.48931 10.3231 6.76628 10.3692 7.02884 10.4487V7.91895C3.70773 7.99434 1.02964 10.6266 1.02964 13.8543C1.02964 15.4159 1.65721 16.8369 2.67964 17.8979C3.71787 18.6017 4.9452 18.9768 6.20101 18.9743C9.58852 18.9743 12.3449 16.3102 12.3449 13.0359Z" fill="white"/>
</g>
<defs>
<clipPath id="clip0_863_19692">
<rect width="18" height="20" fill="white"/>
</clipPath>
</defs>
</svg>
